<svg width="80" height="24" viewBox="0 0 80 24" fill="none" xmlns="http://www.w3.org/2000/svg">
<path d="M0.488335 10.7478L11.6433 0.486438C12.2944 -0.162146 13.3491 -0.162146 14 0.486438C14.6511 1.13502 14.6511 2.18565 14 2.83408L5.69005 10.2614H78.3333C79.2545 10.2614 80 11.004 80 11.9217C80 12.8394 79.2545 13.582 78.3333 13.582H5.69005L14 21.166C14.6511 21.8146 14.6511 22.8652 14 23.5136C13.6745 23.8378 13.248 24 12.8216 24C12.3952 24 11.9688 23.8378 11.6431 23.5136L0.488174 13.0954C-0.162766 12.447 -0.162758 11.3964 0.488335 10.7478Z" fill="#F46E6E"/>
</svg>
