<svg width="25" height="17" viewBox="0 0 25 17" fill="none" xmlns="http://www.w3.org/2000/svg">
<path d="M24.8474 8.8756L17.0349 16.8443C16.8314 17.0519 16.5018 17.0519 16.2984 16.8443C16.095 16.6368 16.095 16.3006 16.2984 16.0931L23.2219 9.03124H0.520849C0.232959 9.03124 0 8.79362 0 8.49997C0 8.20632 0.232959 7.9687 0.520849 7.9687H23.2219L16.2984 0.906843C16.095 0.699306 16.095 0.363127 16.2984 0.15564C16.4001 0.051897 16.5334 0 16.6667 0C16.7999 0 16.9332 0.051897 17.035 0.15564L24.8474 8.12439C25.0509 8.33188 25.0509 8.66806 24.8474 8.8756Z" fill="black"/>
</svg>
